<?xml version="1.0" encoding="utf-8" standalone="no"?>
<!DOCTYPE svg PUBLIC "-//W3C//DTD SVG 1.1//EN"
  "http://www.w3.org/Graphics/SVG/1.1/DTD/svg11.dtd">
<svg xmlns:xlink="http://www.w3.org/1999/xlink" width="1108.8pt" height="1108.8pt" viewBox="0 0 1108.8 1108.8" xmlns="http://www.w3.org/2000/svg" version="1.1">
 <metadata>
  <rdf:RDF xmlns:dc="http://purl.org/dc/elements/1.1/" xmlns:cc="http://creativecommons.org/ns#" xmlns:rdf="http://www.w3.org/1999/02/22-rdf-syntax-ns#">
   <cc:Work>
    <dc:type rdf:resource="http://purl.org/dc/dcmitype/StillImage"/>
    <dc:date>2024-08-06T11:18:35.897136</dc:date>
    <dc:format>image/svg+xml</dc:format>
    <dc:creator>
     <cc:Agent>
      <dc:title>Matplotlib v3.8.4, https://matplotlib.org/</dc:title>
     </cc:Agent>
    </dc:creator>
   </cc:Work>
  </rdf:RDF>
 </metadata>
 <defs>
  <style type="text/css">*{stroke-linejoin: round; stroke-linecap: butt}</style>
 </defs>
 <g id="figure_1">
  <g id="axes_1">
   <g id="PathCollection_1">
    <defs>
     <path id="mb19c6fe402" d="M 0 3.162278 
C 0.838646 3.162278 1.643056 2.82908 2.236068 2.236068 
C 2.82908 1.643056 3.162278 0.838646 3.162278 0 
C 3.162278 -0.838646 2.82908 -1.643056 2.236068 -2.236068 
C 1.643056 -2.82908 0.838646 -3.162278 0 -3.162278 
C -0.838646 -3.162278 -1.643056 -2.82908 -2.236068 -2.236068 
C -2.82908 -1.643056 -3.162278 -0.838646 -3.162278 0 
C -3.162278 0.838646 -2.82908 1.643056 -2.236068 2.236068 
C -1.643056 2.82908 -0.838646 3.162278 0 3.162278 
z
" style="stroke: #7f7f7f; stroke-opacity: 0.5"/>
    </defs>
    <g clip-path="url(#p8097e7f349)">
     <use xlink:href="#mb19c6fe402" x="554.4" y="506.051163" style="fill: #7f7f7f; fill-opacity: 0.5; stroke: #7f7f7f; stroke-opacity: 0.5"/>
    </g>
   </g>
   <g id="PathCollection_2">
    <defs>
     <path id="mef99d13f3c" d="M 0 18.708287 
C 4.961496 18.708287 9.720449 16.737064 13.228757 13.228757 
C 16.737064 9.720449 18.708287 4.961496 18.708287 0 
C 18.708287 -4.961496 16.737064 -9.720449 13.228757 -13.228757 
C 9.720449 -16.737064 4.961496 -18.708287 0 -18.708287 
C -4.961496 -18.708287 -9.720449 -16.737064 -13.228757 -13.228757 
C -16.737064 -9.720449 -18.708287 -4.961496 -18.708287 0 
C -18.708287 4.961496 -16.737064 9.720449 -13.228757 13.228757 
C -9.720449 16.737064 -4.961496 18.708287 0 18.708287 
z
" style="stroke: #7f7f7f; stroke-opacity: 0.5"/>
    </defs>
    <g clip-path="url(#p8097e7f349)">
     <use xlink:href="#mef99d13f3c" x="554.4" y="554.4" style="fill: #7f7f7f; fill-opacity: 0.5; stroke: #7f7f7f; stroke-opacity: 0.5"/>
    </g>
   </g>
   <g id="PathCollection_3">
    <defs>
     <path id="mdae2e5f32d" d="M 0 26.645825 
C 7.066555 26.645825 13.844634 23.838253 18.841444 18.841444 
C 23.838253 13.844634 26.645825 7.066555 26.645825 0 
C 26.645825 -7.066555 23.838253 -13.844634 18.841444 -18.841444 
C 13.844634 -23.838253 7.066555 -26.645825 0 -26.645825 
C -7.066555 -26.645825 -13.844634 -23.838253 -18.841444 -18.841444 
C -23.838253 -13.844634 -26.645825 -7.066555 -26.645825 0 
C -26.645825 7.066555 -23.838253 13.844634 -18.841444 18.841444 
C -13.844634 23.838253 -7.066555 26.645825 0 26.645825 
z
" style="stroke: #7f7f7f; stroke-opacity: 0.5"/>
    </defs>
    <g clip-path="url(#p8097e7f349)">
     <use xlink:href="#mdae2e5f32d" x="554.4" y="602.748837" style="fill: #7f7f7f; fill-opacity: 0.5; stroke: #7f7f7f; stroke-opacity: 0.5"/>
    </g>
   </g>
  </g>
 </g>
 <defs>
  <clipPath id="p8097e7f349">
   <rect x="0" y="0" width="1108.8" height="1108.8"/>
  </clipPath>
 </defs>
</svg>
