<?xml version="1.0" encoding="utf-8" standalone="no"?>
<!DOCTYPE svg PUBLIC "-//W3C//DTD SVG 1.1//EN"
  "http://www.w3.org/Graphics/SVG/1.1/DTD/svg11.dtd">
<svg xmlns:xlink="http://www.w3.org/1999/xlink" width="1108.8pt" height="1108.8pt" viewBox="0 0 1108.8 1108.8" xmlns="http://www.w3.org/2000/svg" version="1.1">
 <metadata>
  <rdf:RDF xmlns:dc="http://purl.org/dc/elements/1.1/" xmlns:cc="http://creativecommons.org/ns#" xmlns:rdf="http://www.w3.org/1999/02/22-rdf-syntax-ns#">
   <cc:Work>
    <dc:type rdf:resource="http://purl.org/dc/dcmitype/StillImage"/>
    <dc:date>2024-08-06T11:18:31.096684</dc:date>
    <dc:format>image/svg+xml</dc:format>
    <dc:creator>
     <cc:Agent>
      <dc:title>Matplotlib v3.8.4, https://matplotlib.org/</dc:title>
     </cc:Agent>
    </dc:creator>
   </cc:Work>
  </rdf:RDF>
 </metadata>
 <defs>
  <style type="text/css">*{stroke-linejoin: round; stroke-linecap: butt}</style>
 </defs>
 <g id="figure_1">
  <g id="axes_1">
   <g id="PathCollection_1">
    <path d="M 880.877135 94.28372 
C 881.715781 94.28372 882.520191 93.950522 883.113203 93.35751 
C 883.706215 92.764498 884.039413 91.960088 884.039413 91.121442 
C 884.039413 90.282796 883.706215 89.478386 883.113203 88.885374 
C 882.520191 88.292362 881.715781 87.959164 880.877135 87.959164 
C 880.038489 87.959164 879.234079 88.292362 878.641067 88.885374 
C 878.048055 89.478386 877.714857 90.282796 877.714857 91.121442 
C 877.714857 91.960088 878.048055 92.764498 878.641067 93.35751 
C 879.234079 93.950522 880.038489 94.28372 880.877135 94.28372 
L 880.877135 94.28372 
z
" clip-path="url(#p07f86ab88a)" style="fill: none; stroke: #d62728; stroke-opacity: 0.4"/>
   </g>
   <g id="PathCollection_2">
    <path d="M 848.335144 139.570464 
C 849.17379 139.570464 849.9782 139.237266 850.571212 138.644254 
C 851.164224 138.051242 851.497422 137.246832 851.497422 136.408186 
C 851.497422 135.56954 851.164224 134.76513 850.571212 134.172118 
C 849.9782 133.579106 849.17379 133.245908 848.335144 133.245908 
C 847.496498 133.245908 846.692088 133.579106 846.099076 134.172118 
C 845.506064 134.76513 845.172867 135.56954 845.172867 136.408186 
C 845.172867 137.246832 845.506064 138.051242 846.099076 138.644254 
C 846.692088 139.237266 847.496498 139.570464 848.335144 139.570464 
L 848.335144 139.570464 
z
" clip-path="url(#p07f86ab88a)" style="fill: none; stroke: #000000; stroke-opacity: 0.4"/>
   </g>
   <g id="PathCollection_3">
    <defs>
     <path id="m415d6b0ea1" d="M 0 26.832816 
C 7.116146 26.832816 13.941791 24.005541 18.973666 18.973666 
C 24.005541 13.941791 26.832816 7.116146 26.832816 0 
C 26.832816 -7.116146 24.005541 -13.941791 18.973666 -18.973666 
C 13.941791 -24.005541 7.116146 -26.832816 0 -26.832816 
C -7.116146 -26.832816 -13.941791 -24.005541 -18.973666 -18.973666 
C -24.005541 -13.941791 -26.832816 -7.116146 -26.832816 0 
C -26.832816 7.116146 -24.005541 13.941791 -18.973666 18.973666 
C -13.941791 24.005541 -7.116146 26.832816 0 26.832816 
z
" style="stroke: #d62728; stroke-opacity: 0.4"/>
    </defs>
    <g clip-path="url(#p07f86ab88a)">
     <use xlink:href="#m415d6b0ea1" x="958.26106" y="158.036233" style="fill: #d62728; fill-opacity: 0.4; stroke: #d62728; stroke-opacity: 0.4"/>
    </g>
   </g>
   <g id="PathCollection_4">
    <path d="M 918.157312 199.935599 
C 918.995957 199.935599 919.800367 199.602401 920.39338 199.009389 
C 920.986392 198.416377 921.319589 197.611967 921.319589 196.773321 
C 921.319589 195.934675 920.986392 195.130265 920.39338 194.537253 
C 919.800367 193.944241 918.995957 193.611043 918.157312 193.611043 
C 917.318666 193.611043 916.514256 193.944241 915.921244 194.537253 
C 915.328231 195.130265 914.995034 195.934675 914.995034 196.773321 
C 914.995034 197.611967 915.328231 198.416377 915.921244 199.009389 
C 916.514256 199.602401 917.318666 199.935599 918.157312 199.935599 
L 918.157312 199.935599 
z
" clip-path="url(#p07f86ab88a)" style="fill: none; stroke: #000000; stroke-opacity: 0.4"/>
   </g>
   <g id="PathCollection_5">
    <defs>
     <path id="mea893f519e" d="M 0 14.142136 
C 3.750538 14.142136 7.347969 12.652031 10 10 
C 12.652031 7.347969 14.142136 3.750538 14.142136 0 
C 14.142136 -3.750538 12.652031 -7.347969 10 -10 
C 7.347969 -12.652031 3.750538 -14.142136 0 -14.142136 
C -3.750538 -14.142136 -7.347969 -12.652031 -10 -10 
C -12.652031 -7.347969 -14.142136 -3.750538 -14.142136 0 
C -14.142136 3.750538 -12.652031 7.347969 -10 10 
C -7.347969 12.652031 -3.750538 14.142136 0 14.142136 
z
" style="stroke: #d62728; stroke-opacity: 0.4"/>
    </defs>
    <g clip-path="url(#p07f86ab88a)">
     <use xlink:href="#mea893f519e" x="1023.190326" y="238.791684" style="fill: #d62728; fill-opacity: 0.4; stroke: #d62728; stroke-opacity: 0.4"/>
    </g>
   </g>
   <g id="PathCollection_6">
    <defs>
     <path id="m7d37f31df5" d="M 0 3.162278 
C 0.838646 3.162278 1.643056 2.82908 2.236068 2.236068 
C 2.82908 1.643056 3.162278 0.838646 3.162278 0 
C 3.162278 -0.838646 2.82908 -1.643056 2.236068 -2.236068 
C 1.643056 -2.82908 0.838646 -3.162278 0 -3.162278 
C -0.838646 -3.162278 -1.643056 -2.82908 -2.236068 -2.236068 
C -2.82908 -1.643056 -3.162278 -0.838646 -3.162278 0 
C -3.162278 0.838646 -2.82908 1.643056 -2.236068 2.236068 
C -1.643056 2.82908 -0.838646 3.162278 0 3.162278 
z
" style="stroke: #000000; stroke-opacity: 0.4"/>
    </defs>
    <g clip-path="url(#p07f86ab88a)">
     <use xlink:href="#m7d37f31df5" x="976.743209" y="269.638242" style="fill-opacity: 0.4; stroke: #000000; stroke-opacity: 0.4"/>
    </g>
   </g>
   <g id="PathCollection_7">
    <path d="M 1051.645228 289.696826 
C 1052.483874 289.696826 1053.288284 289.363629 1053.881296 288.770617 
C 1054.474308 288.177605 1054.807506 287.373195 1054.807506 286.534549 
C 1054.807506 285.695903 1054.474308 284.891493 1053.881296 284.298481 
C 1053.288284 283.705469 1052.483874 283.372271 1051.645228 283.372271 
C 1050.806582 283.372271 1050.002172 283.705469 1049.40916 284.298481 
C 1048.816148 284.891493 1048.48295 285.695903 1048.48295 286.534549 
C 1048.48295 287.373195 1048.816148 288.177605 1049.40916 288.770617 
C 1050.002172 289.363629 1050.806582 289.696826 1051.645228 289.696826 
L 1051.645228 289.696826 
z
" clip-path="url(#p07f86ab88a)" style="fill: none; stroke: #d62728; stroke-opacity: 0.4"/>
   </g>
   <g id="PathCollection_8">
    <path d="M 1002.413219 315.87611 
C 1003.251864 315.87611 1004.056274 315.542913 1004.649287 314.949901 
C 1005.242299 314.356888 1005.575496 313.552478 1005.575496 312.713833 
C 1005.575496 311.875187 1005.242299 311.070777 1004.649287 310.477765 
C 1004.056274 309.884752 1003.251864 309.551555 1002.413219 309.551555 
C 1001.574573 309.551555 1000.770163 309.884752 1000.177151 310.477765 
C 999.584138 311.070777 999.250941 311.875187 999.250941 312.713833 
C 999.250941 313.552478 999.584138 314.356888 1000.177151 314.949901 
C 1000.770163 315.542913 1001.574573 315.87611 1002.413219 315.87611 
L 1002.413219 315.87611 
z
" clip-path="url(#p07f86ab88a)" style="fill: none; stroke: #000000; stroke-opacity: 0.4"/>
   </g>
   <g id="PathCollection_9">
    <defs>
     <path id="m9990ee6ef3" d="M 0 8.3666 
C 2.218848 8.3666 4.347117 7.485042 5.91608 5.91608 
C 7.485042 4.347117 8.3666 2.218848 8.3666 0 
C 8.3666 -2.218848 7.485042 -4.347117 5.91608 -5.91608 
C 4.347117 -7.485042 2.218848 -8.3666 0 -8.3666 
C -2.218848 -8.3666 -4.347117 -7.485042 -5.91608 -5.91608 
C -7.485042 -4.347117 -8.3666 -2.218848 -8.3666 0 
C -8.3666 2.218848 -7.485042 4.347117 -5.91608 5.91608 
C -4.347117 7.485042 -2.218848 8.3666 0 8.3666 
z
" style="stroke: #d62728; stroke-opacity: 0.4"/>
    </defs>
    <g clip-path="url(#p07f86ab88a)">
     <use xlink:href="#m9990ee6ef3" x="1087.887516" y="370.19093" style="fill: #d62728; fill-opacity: 0.4; stroke: #d62728; stroke-opacity: 0.4"/>
    </g>
   </g>
   <g id="PathCollection_10">
    <defs>
     <path id="m2fd0cf2297" d="M 0 13.416408 
C 3.558073 13.416408 6.970895 12.00277 9.486833 9.486833 
C 12.00277 6.970895 13.416408 3.558073 13.416408 0 
C 13.416408 -3.558073 12.00277 -6.970895 9.486833 -9.486833 
C 6.970895 -12.00277 3.558073 -13.416408 0 -13.416408 
C -3.558073 -13.416408 -6.970895 -12.00277 -9.486833 -9.486833 
C -12.00277 -6.970895 -13.416408 -3.558073 -13.416408 0 
C -13.416408 3.558073 -12.00277 6.970895 -9.486833 9.486833 
C -6.970895 12.00277 -3.558073 13.416408 0 13.416408 
z
" style="stroke: #000000; stroke-opacity: 0.4"/>
    </defs>
    <g clip-path="url(#p07f86ab88a)">
     <use xlink:href="#m2fd0cf2297" x="1035.109926" y="388.196037" style="fill-opacity: 0.4; stroke: #000000; stroke-opacity: 0.4"/>
    </g>
   </g>
   <g id="PathCollection_11">
    <defs>
     <path id="m0cf06e38db" d="M 0 14.491377 
C 3.843158 14.491377 7.529428 12.964474 10.246951 10.246951 
C 12.964474 7.529428 14.491377 3.843158 14.491377 0 
C 14.491377 -3.843158 12.964474 -7.529428 10.246951 -10.246951 
C 7.529428 -12.964474 3.843158 -14.491377 0 -14.491377 
C -3.843158 -14.491377 -7.529428 -12.964474 -10.246951 -10.246951 
C -12.964474 -7.529428 -14.491377 -3.843158 -14.491377 0 
C -14.491377 3.843158 -12.964474 7.529428 -10.246951 10.246951 
C -7.529428 12.964474 -3.843158 14.491377 0 14.491377 
z
" style="stroke: #d62728; stroke-opacity: 0.4"/>
    </defs>
    <g clip-path="url(#p07f86ab88a)">
     <use xlink:href="#m0cf06e38db" x="1108.50346" y="448.36133" style="fill: #d62728; fill-opacity: 0.4; stroke: #d62728; stroke-opacity: 0.4"/>
    </g>
   </g>
   <g id="PathCollection_12">
    <defs>
     <path id="m728f5ba993" d="M 0 6.324555 
C 1.677292 6.324555 3.286112 5.65816 4.472136 4.472136 
C 5.65816 3.286112 6.324555 1.677292 6.324555 0 
C 6.324555 -1.677292 5.65816 -3.286112 4.472136 -4.472136 
C 3.286112 -5.65816 1.677292 -6.324555 0 -6.324555 
C -1.677292 -6.324555 -3.286112 -5.65816 -4.472136 -4.472136 
C -5.65816 -3.286112 -6.324555 -1.677292 -6.324555 0 
C -6.324555 1.677292 -5.65816 3.286112 -4.472136 4.472136 
C -3.286112 5.65816 -1.677292 6.324555 0 6.324555 
z
" style="stroke: #000000; stroke-opacity: 0.4"/>
    </defs>
    <g clip-path="url(#p07f86ab88a)">
     <use xlink:href="#m728f5ba993" x="1053.714558" y="458.727321" style="fill-opacity: 0.4; stroke: #000000; stroke-opacity: 0.4"/>
    </g>
   </g>
   <g id="PathCollection_13">
    <path d="M 1113.738028 484.43305 
C 1114.576674 484.43305 1115.381084 484.099852 1115.974096 483.50684 
C 1116.567108 482.913828 1116.900306 482.109418 1116.900306 481.270772 
C 1116.900306 480.432126 1116.567108 479.627716 1115.974096 479.034704 
C 1115.381084 478.441692 1114.576674 478.108494 1113.738028 478.108494 
C 1112.899382 478.108494 1112.094972 478.441692 1111.50196 479.034704 
C 1110.908948 479.627716 1110.57575 480.432126 1110.57575 481.270772 
C 1110.57575 482.109418 1110.908948 482.913828 1111.50196 483.50684 
C 1112.094972 484.099852 1112.899382 484.43305 1113.738028 484.43305 
" clip-path="url(#p07f86ab88a)" style="fill: none; stroke: #d62728; stroke-opacity: 0.4"/>
   </g>
   <g id="PathCollection_14">
    <path d="M 1058.433405 491.582231 
C 1059.27205 491.582231 1060.07646 491.249034 1060.669473 490.656021 
C 1061.262485 490.063009 1061.595682 489.258599 1061.595682 488.419953 
C 1061.595682 487.581308 1061.262485 486.776898 1060.669473 486.183886 
C 1060.07646 485.590873 1059.27205 485.257676 1058.433405 485.257676 
C 1057.594759 485.257676 1056.790349 485.590873 1056.197337 486.183886 
C 1055.604325 486.776898 1055.271127 487.581308 1055.271127 488.419953 
C 1055.271127 489.258599 1055.604325 490.063009 1056.197337 490.656021 
C 1056.790349 491.249034 1057.594759 491.582231 1058.433405 491.582231 
L 1058.433405 491.582231 
z
" clip-path="url(#p07f86ab88a)" style="fill: none; stroke: #000000; stroke-opacity: 0.4"/>
   </g>
   <g id="PathCollection_15">
    <defs>
     <path id="m08567b04fa" d="M 0 19.493589 
C 5.16976 19.493589 10.128476 17.439621 13.784049 13.784049 
C 17.439621 10.128476 19.493589 5.16976 19.493589 0 
C 19.493589 -5.16976 17.439621 -10.128476 13.784049 -13.784049 
C 10.128476 -17.439621 5.16976 -19.493589 0 -19.493589 
C -5.16976 -19.493589 -10.128476 -17.439621 -13.784049 -13.784049 
C -17.439621 -10.128476 -19.493589 -5.16976 -19.493589 0 
C -19.493589 5.16976 -17.439621 10.128476 -13.784049 13.784049 
C -10.128476 17.439621 -5.16976 19.493589 0 19.493589 
z
" style="stroke: #d62728; stroke-opacity: 0.4"/>
    </defs>
    <g clip-path="url(#p07f86ab88a)">
     <use xlink:href="#m08567b04fa" x="1115.891163" y="608.312177" style="fill: #d62728; fill-opacity: 0.4; stroke: #d62728; stroke-opacity: 0.4"/>
    </g>
   </g>
   <g id="PathCollection_16">
    <path d="M 1060.380251 606.201208 
C 1061.218897 606.201208 1062.023307 605.86801 1062.616319 605.274998 
C 1063.209331 604.681986 1063.542529 603.877576 1063.542529 603.03893 
C 1063.542529 602.200284 1063.209331 601.395874 1062.616319 600.802862 
C 1062.023307 600.20985 1061.218897 599.876653 1060.380251 599.876653 
C 1059.541605 599.876653 1058.737195 600.20985 1058.144183 600.802862 
C 1057.551171 601.395874 1057.217974 602.200284 1057.217974 603.03893 
C 1057.217974 603.877576 1057.551171 604.681986 1058.144183 605.274998 
C 1058.737195 605.86801 1059.541605 606.201208 1060.380251 606.201208 
L 1060.380251 606.201208 
z
" clip-path="url(#p07f86ab88a)" style="fill: none; stroke: #000000; stroke-opacity: 0.4"/>
   </g>
   <g id="PathCollection_17">
    <defs>
     <path id="m36df1293e4" d="M 0 23.2379 
C 6.162763 23.2379 12.073945 20.789408 16.431677 16.431677 
C 20.789408 12.073945 23.2379 6.162763 23.2379 0 
C 23.2379 -6.162763 20.789408 -12.073945 16.431677 -16.431677 
C 12.073945 -20.789408 6.162763 -23.2379 0 -23.2379 
C -6.162763 -23.2379 -12.073945 -20.789408 -16.431677 -16.431677 
C -20.789408 -12.073945 -23.2379 -6.162763 -23.2379 0 
C -23.2379 6.162763 -20.789408 12.073945 -16.431677 16.431677 
C -12.073945 20.789408 -6.162763 23.2379 0 23.2379 
z
" style="stroke: #d62728; stroke-opacity: 0.4"/>
    </defs>
    <g clip-path="url(#p07f86ab88a)">
     <use xlink:href="#m36df1293e4" x="1092.857777" y="723.330837" style="fill: #d62728; fill-opacity: 0.4; stroke: #d62728; stroke-opacity: 0.4"/>
    </g>
   </g>
   <g id="PathCollection_18">
    <defs>
     <path id="m60ddd3ff55" d="M 0 4.472136 
C 1.186024 4.472136 2.323632 4.000923 3.162278 3.162278 
C 4.000923 2.323632 4.472136 1.186024 4.472136 0 
C 4.472136 -1.186024 4.000923 -2.323632 3.162278 -3.162278 
C 2.323632 -4.000923 1.186024 -4.472136 0 -4.472136 
C -1.186024 -4.472136 -2.323632 -4.000923 -3.162278 -3.162278 
C -4.000923 -2.323632 -4.472136 -1.186024 -4.472136 0 
C -4.472136 1.186024 -4.000923 2.323632 -3.162278 3.162278 
C -2.323632 4.000923 -1.186024 4.472136 0 4.472136 
z
" style="stroke: #000000; stroke-opacity: 0.4"/>
    </defs>
    <g clip-path="url(#p07f86ab88a)">
     <use xlink:href="#m60ddd3ff55" x="1039.596698" y="706.814874" style="fill-opacity: 0.4; stroke: #000000; stroke-opacity: 0.4"/>
    </g>
   </g>
   <g id="PathCollection_19">
    <path d="M 1075.11053 775.667106 
C 1075.949176 775.667106 1076.753586 775.333908 1077.346598 774.740896 
C 1077.93961 774.147884 1078.272808 773.343474 1078.272808 772.504828 
C 1078.272808 771.666182 1077.93961 770.861772 1077.346598 770.26876 
C 1076.753586 769.675748 1075.949176 769.34255 1075.11053 769.34255 
C 1074.271884 769.34255 1073.467474 769.675748 1072.874462 770.26876 
C 1072.28145 770.861772 1071.948253 771.666182 1071.948253 772.504828 
C 1071.948253 773.343474 1072.28145 774.147884 1072.874462 774.740896 
C 1073.467474 775.333908 1074.271884 775.667106 1075.11053 775.667106 
L 1075.11053 775.667106 
z
" clip-path="url(#p07f86ab88a)" style="fill: none; stroke: #d62728; stroke-opacity: 0.4"/>
   </g>
   <g id="PathCollection_20">
    <path d="M 1023.583563 754.348492 
C 1024.422209 754.348492 1025.226619 754.015294 1025.819631 753.422282 
C 1026.412643 752.82927 1026.74584 752.02486 1026.74584 751.186214 
C 1026.74584 750.347568 1026.412643 749.543158 1025.819631 748.950146 
C 1025.226619 748.357134 1024.422209 748.023936 1023.583563 748.023936 
C 1022.744917 748.023936 1021.940507 748.357134 1021.347495 748.950146 
C 1020.754483 749.543158 1020.421285 750.347568 1020.421285 751.186214 
C 1020.421285 752.02486 1020.754483 752.82927 1021.347495 753.422282 
C 1021.940507 754.015294 1022.744917 754.348492 1023.583563 754.348492 
L 1023.583563 754.348492 
z
" clip-path="url(#p07f86ab88a)" style="fill: none; stroke: #000000; stroke-opacity: 0.4"/>
   </g>
   <g id="PathCollection_21">
    <path d="M 1054.733107 819.542064 
C 1055.571753 819.542064 1056.376163 819.208866 1056.969175 818.615854 
C 1057.562187 818.022842 1057.895385 817.218432 1057.895385 816.379786 
C 1057.895385 815.54114 1057.562187 814.73673 1056.969175 814.143718 
C 1056.376163 813.550706 1055.571753 813.217508 1054.733107 813.217508 
C 1053.894461 813.217508 1053.090051 813.550706 1052.497039 814.143718 
C 1051.904027 814.73673 1051.570829 815.54114 1051.570829 816.379786 
C 1051.570829 817.218432 1051.904027 818.022842 1052.497039 818.615854 
C 1053.090051 819.208866 1053.894461 819.542064 1054.733107 819.542064 
L 1054.733107 819.542064 
z
" clip-path="url(#p07f86ab88a)" style="fill: none; stroke: #d62728; stroke-opacity: 0.4"/>
   </g>
   <g id="PathCollection_22">
    <path d="M 1005.198112 793.93652 
C 1006.036757 793.93652 1006.841167 793.603322 1007.43418 793.01031 
C 1008.027192 792.417298 1008.360389 791.612888 1008.360389 790.774242 
C 1008.360389 789.935596 1008.027192 789.131186 1007.43418 788.538174 
C 1006.841167 787.945162 1006.036757 787.611964 1005.198112 787.611964 
C 1004.359466 787.611964 1003.555056 787.945162 1002.962044 788.538174 
C 1002.369031 789.131186 1002.035834 789.935596 1002.035834 790.774242 
C 1002.035834 791.612888 1002.369031 792.417298 1002.962044 793.01031 
C 1003.555056 793.603322 1004.359466 793.93652 1005.198112 793.93652 
L 1005.198112 793.93652 
z
" clip-path="url(#p07f86ab88a)" style="fill: none; stroke: #000000; stroke-opacity: 0.4"/>
   </g>
   <g id="PathCollection_23">
    <path d="M 1036.534605 852.090501 
C 1037.37325 852.090501 1038.17766 851.757303 1038.770673 851.164291 
C 1039.363685 850.571279 1039.696882 849.766869 1039.696882 848.928223 
C 1039.696882 848.089577 1039.363685 847.285167 1038.770673 846.692155 
C 1038.17766 846.099143 1037.37325 845.765946 1036.534605 845.765946 
C 1035.695959 845.765946 1034.891549 846.099143 1034.298537 846.692155 
C 1033.705525 847.285167 1033.372327 848.089577 1033.372327 848.928223 
C 1033.372327 849.766869 1033.705525 850.571279 1034.298537 851.164291 
C 1034.891549 851.757303 1035.695959 852.090501 1036.534605 852.090501 
L 1036.534605 852.090501 
z
" clip-path="url(#p07f86ab88a)" style="fill: none; stroke: #d62728; stroke-opacity: 0.4"/>
   </g>
   <g id="PathCollection_24">
    <path d="M 988.778847 823.306826 
C 989.617492 823.306826 990.421902 822.973629 991.014914 822.380617 
C 991.607927 821.787605 991.941124 820.983195 991.941124 820.144549 
C 991.941124 819.305903 991.607927 818.501493 991.014914 817.908481 
C 990.421902 817.315469 989.617492 816.982271 988.778847 816.982271 
C 987.940201 816.982271 987.135791 817.315469 986.542779 817.908481 
C 985.949766 818.501493 985.616569 819.305903 985.616569 820.144549 
C 985.616569 820.983195 985.949766 821.787605 986.542779 822.380617 
C 987.135791 822.973629 987.940201 823.306826 988.778847 823.306826 
L 988.778847 823.306826 
z
" clip-path="url(#p07f86ab88a)" style="fill: none; stroke: #000000; stroke-opacity: 0.4"/>
   </g>
   <g id="PathCollection_25">
    <path d="M 1026.458707 868.200333 
C 1027.297353 868.200333 1028.101763 867.867136 1028.694775 867.274124 
C 1029.287787 866.681112 1029.620985 865.876702 1029.620985 865.038056 
C 1029.620985 864.19941 1029.287787 863.395 1028.694775 862.801988 
C 1028.101763 862.208976 1027.297353 861.875778 1026.458707 861.875778 
C 1025.620061 861.875778 1024.815651 862.208976 1024.222639 862.801988 
C 1023.629627 863.395 1023.296429 864.19941 1023.296429 865.038056 
C 1023.296429 865.876702 1023.629627 866.681112 1024.222639 867.274124 
C 1024.815651 867.867136 1025.620061 868.200333 1026.458707 868.200333 
L 1026.458707 868.200333 
z
" clip-path="url(#p07f86ab88a)" style="fill: none; stroke: #d62728; stroke-opacity: 0.4"/>
   </g>
   <g id="PathCollection_26">
    <path d="M 979.682819 837.837264 
C 980.521464 837.837264 981.325874 837.504066 981.918887 836.911054 
C 982.511899 836.318042 982.845096 835.513632 982.845096 834.674986 
C 982.845096 833.83634 982.511899 833.03193 981.918887 832.438918 
C 981.325874 831.845906 980.521464 831.512708 979.682819 831.512708 
C 978.844173 831.512708 978.039763 831.845906 977.446751 832.438918 
C 976.853738 833.03193 976.520541 833.83634 976.520541 834.674986 
C 976.520541 835.513632 976.853738 836.318042 977.446751 836.911054 
C 978.039763 837.504066 978.844173 837.837264 979.682819 837.837264 
L 979.682819 837.837264 
z
" clip-path="url(#p07f86ab88a)" style="fill: none; stroke: #000000; stroke-opacity: 0.4"/>
   </g>
   <g id="PathCollection_27">
    <defs>
     <path id="me72e64095f" d="M 0 20.248457 
C 5.369953 20.248457 10.520691 18.114952 14.317821 14.317821 
C 18.114952 10.520691 20.248457 5.369953 20.248457 0 
C 20.248457 -5.369953 18.114952 -10.520691 14.317821 -14.317821 
C 10.520691 -18.114952 5.369953 -20.248457 0 -20.248457 
C -5.369953 -20.248457 -10.520691 -18.114952 -14.317821 -14.317821 
C -18.114952 -10.520691 -20.248457 -5.369953 -20.248457 0 
C -20.248457 5.369953 -18.114952 10.520691 -14.317821 14.317821 
C -10.520691 18.114952 -5.369953 20.248457 0 20.248457 
z
" style="stroke: #d62728; stroke-opacity: 0.4"/>
    </defs>
    <g clip-path="url(#p07f86ab88a)">
     <use xlink:href="#me72e64095f" x="1003.599377" y="897.696084" style="fill: #d62728; fill-opacity: 0.4; stroke: #d62728; stroke-opacity: 0.4"/>
    </g>
   </g>
   <g id="PathCollection_28">
    <path d="M 959.060428 867.297822 
C 959.899074 867.297822 960.703484 866.964624 961.296496 866.371612 
C 961.889508 865.7786 962.222706 864.97419 962.222706 864.135544 
C 962.222706 863.296898 961.889508 862.492488 961.296496 861.899476 
C 960.703484 861.306464 959.899074 860.973267 959.060428 860.973267 
C 958.221782 860.973267 957.417372 861.306464 956.82436 861.899476 
C 956.231348 862.492488 955.89815 863.296898 955.89815 864.135544 
C 955.89815 864.97419 956.231348 865.7786 956.82436 866.371612 
C 957.417372 866.964624 958.221782 867.297822 959.060428 867.297822 
L 959.060428 867.297822 
z
" clip-path="url(#p07f86ab88a)" style="fill: none; stroke: #000000; stroke-opacity: 0.4"/>
   </g>
   <g id="PathCollection_29">
    <path d="M 970.393395 940.975003 
C 971.232041 940.975003 972.036451 940.641806 972.629463 940.048794 
C 973.222475 939.455781 973.555673 938.651371 973.555673 937.812726 
C 973.555673 936.97408 973.222475 936.16967 972.629463 935.576658 
C 972.036451 934.983645 971.232041 934.650448 970.393395 934.650448 
C 969.55475 934.650448 968.75034 934.983645 968.157327 935.576658 
C 967.564315 936.16967 967.231118 936.97408 967.231118 937.812726 
C 967.231118 938.651371 967.564315 939.455781 968.157327 940.048794 
C 968.75034 940.641806 969.55475 940.975003 970.393395 940.975003 
L 970.393395 940.975003 
z
" clip-path="url(#p07f86ab88a)" style="fill: none; stroke: #d62728; stroke-opacity: 0.4"/>
   </g>
   <g id="PathCollection_30">
    <path d="M 929.103488 903.501431 
C 929.942134 903.501431 930.746544 903.168234 931.339556 902.575221 
C 931.932569 901.982209 932.265766 901.177799 932.265766 900.339153 
C 932.265766 899.500508 931.932569 898.696098 931.339556 898.103086 
C 930.746544 897.510073 929.942134 897.176876 929.103488 897.176876 
C 928.264843 897.176876 927.460433 897.510073 926.86742 898.103086 
C 926.274408 898.696098 925.941211 899.500508 925.941211 900.339153 
C 925.941211 901.177799 926.274408 901.982209 926.86742 902.575221 
C 927.460433 903.168234 928.264843 903.501431 929.103488 903.501431 
L 929.103488 903.501431 
z
" clip-path="url(#p07f86ab88a)" style="fill: none; stroke: #000000; stroke-opacity: 0.4"/>
   </g>
   <g id="PathCollection_31">
    <path d="M 945.335805 966.88998 
C 946.17445 966.88998 946.97886 966.556782 947.571873 965.96377 
C 948.164885 965.370758 948.498082 964.566348 948.498082 963.727702 
C 948.498082 962.889056 948.164885 962.084647 947.571873 961.491634 
C 946.97886 960.898622 946.17445 960.565425 945.335805 960.565425 
C 944.497159 960.565425 943.692749 960.898622 943.099737 961.491634 
C 942.506725 962.084647 942.173527 962.889056 942.173527 963.727702 
C 942.173527 964.566348 942.506725 965.370758 943.099737 965.96377 
C 943.692749 966.556782 944.497159 966.88998 945.335805 966.88998 
L 945.335805 966.88998 
z
" clip-path="url(#p07f86ab88a)" style="fill: none; stroke: #d62728; stroke-opacity: 0.4"/>
   </g>
   <g id="PathCollection_32">
    <g clip-path="url(#p07f86ab88a)">
     <use xlink:href="#m60ddd3ff55" x="906.489126" y="923.720651" style="fill-opacity: 0.4; stroke: #000000; stroke-opacity: 0.4"/>
    </g>
   </g>
   <g id="PathCollection_33">
    <defs>
     <path id="mdc6f2fffe0" d="M 0 7.745967 
C 2.054254 7.745967 4.024648 6.929803 5.477226 5.477226 
C 6.929803 4.024648 7.745967 2.054254 7.745967 0 
C 7.745967 -2.054254 6.929803 -4.024648 5.477226 -5.477226 
C 4.024648 -6.929803 2.054254 -7.745967 0 -7.745967 
C -2.054254 -7.745967 -4.024648 -6.929803 -5.477226 -5.477226 
C -6.929803 -4.024648 -7.745967 -2.054254 -7.745967 0 
C -7.745967 2.054254 -6.929803 4.024648 -5.477226 5.477226 
C -4.024648 6.929803 -2.054254 7.745967 0 7.745967 
z
" style="stroke: #d62728; stroke-opacity: 0.4"/>
    </defs>
    <g clip-path="url(#p07f86ab88a)">
     <use xlink:href="#mdc6f2fffe0" x="876.332344" y="1020.90826" style="fill: #d62728; fill-opacity: 0.4; stroke: #d62728; stroke-opacity: 0.4"/>
    </g>
   </g>
   <g id="PathCollection_34">
    <defs>
     <path id="m4bcdd2347d" d="M 0 7.745967 
C 2.054254 7.745967 4.024648 6.929803 5.477226 5.477226 
C 6.929803 4.024648 7.745967 2.054254 7.745967 0 
C 7.745967 -2.054254 6.929803 -4.024648 5.477226 -5.477226 
C 4.024648 -6.929803 2.054254 -7.745967 0 -7.745967 
C -2.054254 -7.745967 -4.024648 -6.929803 -5.477226 -5.477226 
C -6.929803 -4.024648 -7.745967 -2.054254 -7.745967 0 
C -7.745967 2.054254 -6.929803 4.024648 -5.477226 5.477226 
C -4.024648 6.929803 -2.054254 7.745967 0 7.745967 
z
" style="stroke: #000000; stroke-opacity: 0.4"/>
    </defs>
    <g clip-path="url(#p07f86ab88a)">
     <use xlink:href="#m4bcdd2347d" x="844.235163" y="975.312084" style="fill-opacity: 0.4; stroke: #000000; stroke-opacity: 0.4"/>
    </g>
   </g>
   <g id="PathCollection_35">
    <defs>
     <path id="m920dbe5a31" d="M 0 16.733201 
C 4.437697 16.733201 8.694234 14.970085 11.83216 11.83216 
C 14.970085 8.694234 16.733201 4.437697 16.733201 0 
C 16.733201 -4.437697 14.970085 -8.694234 11.83216 -11.83216 
C 8.694234 -14.970085 4.437697 -16.733201 0 -16.733201 
C -4.437697 -16.733201 -8.694234 -14.970085 -11.83216 -11.83216 
C -14.970085 -8.694234 -16.733201 -4.437697 -16.733201 0 
C -16.733201 4.437697 -14.970085 8.694234 -11.83216 11.83216 
C -8.694234 14.970085 -4.437697 16.733201 0 16.733201 
z
" style="stroke: #d62728; stroke-opacity: 0.4"/>
    </defs>
    <g clip-path="url(#p07f86ab88a)">
     <use xlink:href="#m920dbe5a31" x="833.920744" y="1048.041628" style="fill: #d62728; fill-opacity: 0.4; stroke: #d62728; stroke-opacity: 0.4"/>
    </g>
   </g>
   <g id="PathCollection_36">
    <path d="M 805.96867 1002.951766 
C 806.807316 1002.951766 807.611726 1002.618569 808.204738 1002.025556 
C 808.79775 1001.432544 809.130947 1000.628134 809.130947 999.789488 
C 809.130947 998.950843 808.79775 998.146433 808.204738 997.55342 
C 807.611726 996.960408 806.807316 996.627211 805.96867 996.627211 
C 805.130024 996.627211 804.325614 996.960408 803.732602 997.55342 
C 803.13959 998.146433 802.806392 998.950843 802.806392 999.789488 
C 802.806392 1000.628134 803.13959 1001.432544 803.732602 1002.025556 
C 804.325614 1002.618569 805.130024 1002.951766 805.96867 1002.951766 
L 805.96867 1002.951766 
z
" clip-path="url(#p07f86ab88a)" style="fill: none; stroke: #000000; stroke-opacity: 0.4"/>
   </g>
   <g id="PathCollection_37">
    <defs>
     <path id="m2952e8b877" d="M 0 10.954451 
C 2.905154 10.954451 5.691712 9.800221 7.745967 7.745967 
C 9.800221 5.691712 10.954451 2.905154 10.954451 0 
C 10.954451 -2.905154 9.800221 -5.691712 7.745967 -7.745967 
C 5.691712 -9.800221 2.905154 -10.954451 0 -10.954451 
C -2.905154 -10.954451 -5.691712 -9.800221 -7.745967 -7.745967 
C -9.800221 -5.691712 -10.954451 -2.905154 -10.954451 0 
C -10.954451 2.905154 -9.800221 5.691712 -7.745967 7.745967 
C -5.691712 9.800221 -2.905154 10.954451 0 10.954451 
z
" style="stroke: #d62728; stroke-opacity: 0.4"/>
    </defs>
    <g clip-path="url(#p07f86ab88a)">
     <use xlink:href="#m2952e8b877" x="789.845944" y="1071.068567" style="fill: #d62728; fill-opacity: 0.4; stroke: #d62728; stroke-opacity: 0.4"/>
    </g>
   </g>
   <g id="PathCollection_38">
    <path d="M 766.206586 1023.728873 
C 767.045232 1023.728873 767.849642 1023.395675 768.442654 1022.802663 
C 769.035666 1022.209651 769.368864 1021.405241 769.368864 1020.566595 
C 769.368864 1019.72795 769.035666 1018.92354 768.442654 1018.330527 
C 767.849642 1017.737515 767.045232 1017.404318 766.206586 1017.404318 
C 765.36794 1017.404318 764.56353 1017.737515 763.970518 1018.330527 
C 763.377506 1018.92354 763.044308 1019.72795 763.044308 1020.566595 
C 763.044308 1021.405241 763.377506 1022.209651 763.970518 1022.802663 
C 764.56353 1023.395675 765.36794 1023.728873 766.206586 1023.728873 
L 766.206586 1023.728873 
z
" clip-path="url(#p07f86ab88a)" style="fill: none; stroke: #000000; stroke-opacity: 0.4"/>
   </g>
   <g id="PathCollection_39">
    <g clip-path="url(#p07f86ab88a)">
     <use xlink:href="#mdc6f2fffe0" x="762.338679" y="1083.078419" style="fill: #d62728; fill-opacity: 0.4; stroke: #d62728; stroke-opacity: 0.4"/>
    </g>
   </g>
   <g id="PathCollection_40">
    <path d="M 741.38107 1034.565459 
C 742.219716 1034.565459 743.024126 1034.232262 743.617138 1033.639249 
C 744.21015 1033.046237 744.543347 1032.241827 744.543347 1031.403181 
C 744.543347 1030.564536 744.21015 1029.760126 743.617138 1029.167113 
C 743.024126 1028.574101 742.219716 1028.240904 741.38107 1028.240904 
C 740.542424 1028.240904 739.738014 1028.574101 739.145002 1029.167113 
C 738.55199 1029.760126 738.218792 1030.564536 738.218792 1031.403181 
C 738.218792 1032.241827 738.55199 1033.046237 739.145002 1033.639249 
C 739.738014 1034.232262 740.542424 1034.565459 741.38107 1034.565459 
L 741.38107 1034.565459 
z
" clip-path="url(#p07f86ab88a)" style="fill: none; stroke: #000000; stroke-opacity: 0.4"/>
   </g>
   <g id="PathCollection_41">
    <defs>
     <path id="m58abb077d9" d="M 0 3.162278 
C 0.838646 3.162278 1.643056 2.82908 2.236068 2.236068 
C 2.82908 1.643056 3.162278 0.838646 3.162278 0 
C 3.162278 -0.838646 2.82908 -1.643056 2.236068 -2.236068 
C 1.643056 -2.82908 0.838646 -3.162278 0 -3.162278 
C -0.838646 -3.162278 -1.643056 -2.82908 -2.236068 -2.236068 
C -2.82908 -1.643056 -3.162278 -0.838646 -3.162278 0 
C -3.162278 0.838646 -2.82908 1.643056 -2.236068 2.236068 
C -1.643056 2.82908 -0.838646 3.162278 0 3.162278 
z
" style="stroke: #d62728; stroke-opacity: 0.4"/>
    </defs>
    <g clip-path="url(#p07f86ab88a)">
     <use xlink:href="#m58abb077d9" x="754.448149" y="1086.211423" style="fill: #d62728; fill-opacity: 0.4; stroke: #d62728; stroke-opacity: 0.4"/>
    </g>
   </g>
   <g id="PathCollection_42">
    <path d="M 734.264121 1037.389031 
C 735.102767 1037.389031 735.907177 1037.055834 736.500189 1036.462821 
C 737.093201 1035.869809 737.426399 1035.065399 737.426399 1034.226753 
C 737.426399 1033.388108 737.093201 1032.583698 736.500189 1031.990686 
C 735.907177 1031.397673 735.102767 1031.064476 734.264121 1031.064476 
C 733.425475 1031.064476 732.621065 1031.397673 732.028053 1031.990686 
C 731.435041 1032.583698 731.101843 1033.388108 731.101843 1034.226753 
C 731.101843 1035.065399 731.435041 1035.869809 732.028053 1036.462821 
C 732.621065 1037.055834 733.425475 1037.389031 734.264121 1037.389031 
L 734.264121 1037.389031 
z
" clip-path="url(#p07f86ab88a)" style="fill: none; stroke: #000000; stroke-opacity: 0.4"/>
   </g>
   <g id="PathCollection_43">
    <path d="M 739.047433 1095.098203 
C 739.886078 1095.098203 740.690488 1094.765006 741.283501 1094.171994 
C 741.876513 1093.578981 742.20971 1092.774571 742.20971 1091.935926 
C 742.20971 1091.09728 741.876513 1090.29287 741.283501 1089.699858 
C 740.690488 1089.106845 739.886078 1088.773648 739.047433 1088.773648 
C 738.208787 1088.773648 737.404377 1089.106845 736.811365 1089.699858 
C 736.218352 1090.29287 735.885155 1091.09728 735.885155 1091.935926 
C 735.885155 1092.774571 736.218352 1093.578981 736.811365 1094.171994 
C 737.404377 1094.765006 738.208787 1095.098203 739.047433 1095.098203 
L 739.047433 1095.098203 
z
" clip-path="url(#p07f86ab88a)" style="fill: none; stroke: #d62728; stroke-opacity: 0.4"/>
   </g>
   <g id="PathCollection_44">
    <path d="M 720.371888 1042.559133 
C 721.210534 1042.559133 722.014944 1042.225936 722.607956 1041.632924 
C 723.200969 1041.039912 723.534166 1040.235502 723.534166 1039.396856 
C 723.534166 1038.55821 723.200969 1037.7538 722.607956 1037.160788 
C 722.014944 1036.567776 721.210534 1036.234578 720.371888 1036.234578 
C 719.533243 1036.234578 718.728833 1036.567776 718.13582 1037.160788 
C 717.542808 1037.7538 717.209611 1038.55821 717.209611 1039.396856 
C 717.209611 1040.235502 717.542808 1041.039912 718.13582 1041.632924 
C 718.728833 1042.225936 719.533243 1042.559133 720.371888 1042.559133 
L 720.371888 1042.559133 
z
" clip-path="url(#p07f86ab88a)" style="fill: none; stroke: #000000; stroke-opacity: 0.4"/>
   </g>
   <g id="PathCollection_45">
    <defs>
     <path id="ma3ca6c2202" d="M 0 6.324555 
C 1.677292 6.324555 3.286112 5.65816 4.472136 4.472136 
C 5.65816 3.286112 6.324555 1.677292 6.324555 0 
C 6.324555 -1.677292 5.65816 -3.286112 4.472136 -4.472136 
C 3.286112 -5.65816 1.677292 -6.324555 0 -6.324555 
C -1.677292 -6.324555 -3.286112 -5.65816 -4.472136 -4.472136 
C -5.65816 -3.286112 -6.324555 -1.677292 -6.324555 0 
C -6.324555 1.677292 -5.65816 3.286112 -4.472136 4.472136 
C -3.286112 5.65816 -1.677292 6.324555 0 6.324555 
z
" style="stroke: #d62728; stroke-opacity: 0.4"/>
    </defs>
    <g clip-path="url(#p07f86ab88a)">
     <use xlink:href="#ma3ca6c2202" x="698.776074" y="1104.596874" style="fill: #d62728; fill-opacity: 0.4; stroke: #d62728; stroke-opacity: 0.4"/>
    </g>
   </g>
   <g id="PathCollection_46">
    <g clip-path="url(#p07f86ab88a)">
     <use xlink:href="#m60ddd3ff55" x="684.032902" y="1050.813628" style="fill-opacity: 0.4; stroke: #000000; stroke-opacity: 0.4"/>
    </g>
   </g>
   <g id="PathCollection_47">
    <defs>
     <path id="m6513aa0620" d="M 0 5.477226 
C 1.452577 5.477226 2.845856 4.900111 3.872983 3.872983 
C 4.900111 2.845856 5.477226 1.452577 5.477226 0 
C 5.477226 -1.452577 4.900111 -2.845856 3.872983 -3.872983 
C 2.845856 -4.900111 1.452577 -5.477226 0 -5.477226 
C -1.452577 -5.477226 -2.845856 -4.900111 -3.872983 -3.872983 
C -4.900111 -2.845856 -5.477226 -1.452577 -5.477226 0 
C -5.477226 1.452577 -4.900111 2.845856 -3.872983 3.872983 
C -2.845856 4.900111 -1.452577 5.477226 0 5.477226 
z
" style="stroke: #d62728; stroke-opacity: 0.4"/>
    </defs>
    <g clip-path="url(#p07f86ab88a)">
     <use xlink:href="#m6513aa0620" x="667.097916" y="1112.313349" style="fill: #d62728; fill-opacity: 0.4; stroke: #d62728; stroke-opacity: 0.4"/>
    </g>
   </g>
   <g id="PathCollection_48">
    <g clip-path="url(#p07f86ab88a)">
     <use xlink:href="#m728f5ba993" x="655.44907" y="1057.782307" style="fill-opacity: 0.4; stroke: #000000; stroke-opacity: 0.4"/>
    </g>
   </g>
   <g id="PathCollection_49">
    <path d="M 624.222167 1122.93424 
C 625.060813 1122.93424 625.865223 1122.601043 626.458235 1122.008031 
C 627.051248 1121.415019 627.384445 1120.610609 627.384445 1119.771963 
C 627.384445 1118.933317 627.051248 1118.128907 626.458235 1117.535895 
C 625.865223 1116.942883 625.060813 1116.609685 624.222167 1116.609685 
C 623.383522 1116.609685 622.579112 1116.942883 621.986099 1117.535895 
C 621.393087 1118.128907 621.05989 1118.933317 621.05989 1119.771963 
C 621.05989 1120.610609 621.393087 1121.415019 621.986099 1122.008031 
C 622.579112 1122.601043 623.383522 1122.93424 624.222167 1122.93424 
" clip-path="url(#p07f86ab88a)" style="fill: none; stroke: #d62728; stroke-opacity: 0.4"/>
   </g>
   <g id="PathCollection_50">
    <g clip-path="url(#p07f86ab88a)">
     <use xlink:href="#m7d37f31df5" x="616.763553" y="1064.506019" style="fill-opacity: 0.4; stroke: #000000; stroke-opacity: 0.4"/>
    </g>
   </g>
  </g>
 </g>
 <defs>
  <clipPath id="p07f86ab88a">
   <rect x="0" y="0" width="1108.8" height="1108.8"/>
  </clipPath>
 </defs>
</svg>
