<?xml version="1.0" encoding="utf-8" standalone="no"?>
<!DOCTYPE svg PUBLIC "-//W3C//DTD SVG 1.1//EN"
  "http://www.w3.org/Graphics/SVG/1.1/DTD/svg11.dtd">
<svg xmlns:xlink="http://www.w3.org/1999/xlink" width="1108.8pt" height="1108.8pt" viewBox="0 0 1108.8 1108.8" xmlns="http://www.w3.org/2000/svg" version="1.1">
 <metadata>
  <rdf:RDF xmlns:dc="http://purl.org/dc/elements/1.1/" xmlns:cc="http://creativecommons.org/ns#" xmlns:rdf="http://www.w3.org/1999/02/22-rdf-syntax-ns#">
   <cc:Work>
    <dc:type rdf:resource="http://purl.org/dc/dcmitype/StillImage"/>
    <dc:date>2024-07-18T17:17:40.390641</dc:date>
    <dc:format>image/svg+xml</dc:format>
    <dc:creator>
     <cc:Agent>
      <dc:title>Matplotlib v3.8.4, https://matplotlib.org/</dc:title>
     </cc:Agent>
    </dc:creator>
   </cc:Work>
  </rdf:RDF>
 </metadata>
 <defs>
  <style type="text/css">*{stroke-linejoin: round; stroke-linecap: butt}</style>
 </defs>
 <g id="figure_1">
  <g id="axes_1">
   <g id="PathCollection_1">
    <path d="M 932.230047 73.519506 
C 933.068692 73.519506 933.873102 73.186308 934.466114 72.593296 
C 935.059127 72.000284 935.392324 71.195874 935.392324 70.357228 
C 935.392324 69.518582 935.059127 68.714172 934.466114 68.12116 
C 933.873102 67.528148 933.068692 67.19495 932.230047 67.19495 
C 931.391401 67.19495 930.586991 67.528148 929.993979 68.12116 
C 929.400966 68.714172 929.067769 69.518582 929.067769 70.357228 
C 929.067769 71.195874 929.400966 72.000284 929.993979 72.593296 
C 930.586991 73.186308 931.391401 73.519506 932.230047 73.519506 
L 932.230047 73.519506 
z
" clip-path="url(#pb0a1ccac22)" style="fill: none; stroke: #d62728; stroke-opacity: 0.4"/>
   </g>
   <g id="PathCollection_2">
    <path d="M 894.666223 120.830454 
C 895.504869 120.830454 896.309279 120.497257 896.902291 119.904245 
C 897.495303 119.311233 897.828501 118.506823 897.828501 117.668177 
C 897.828501 116.829531 897.495303 116.025121 896.902291 115.432109 
C 896.309279 114.839097 895.504869 114.505899 894.666223 114.505899 
C 893.827577 114.505899 893.023167 114.839097 892.430155 115.432109 
C 891.837143 116.025121 891.503946 116.829531 891.503946 117.668177 
C 891.503946 118.506823 891.837143 119.311233 892.430155 119.904245 
C 893.023167 120.497257 893.827577 120.830454 894.666223 120.830454 
L 894.666223 120.830454 
z
" clip-path="url(#pb0a1ccac22)" style="fill: none; stroke: #000000; stroke-opacity: 0.4"/>
   </g>
   <g id="PathCollection_3">
    <defs>
     <path id="m66c08ac832" d="M 0 26.832816 
C 7.116146 26.832816 13.941791 24.005541 18.973666 18.973666 
C 24.005541 13.941791 26.832816 7.116146 26.832816 0 
C 26.832816 -7.116146 24.005541 -13.941791 18.973666 -18.973666 
C 13.941791 -24.005541 7.116146 -26.832816 0 -26.832816 
C -7.116146 -26.832816 -13.941791 -24.005541 -18.973666 -18.973666 
C -24.005541 -13.941791 -26.832816 -7.116146 -26.832816 0 
C -26.832816 7.116146 -24.005541 13.941791 -18.973666 18.973666 
C -13.941791 24.005541 -7.116146 26.832816 0 26.832816 
z
" style="stroke: #d62728; stroke-opacity: 0.4"/>
    </defs>
    <g clip-path="url(#pb0a1ccac22)">
     <use xlink:href="#m66c08ac832" x="1022.068633" y="157.939535" style="fill: #d62728; fill-opacity: 0.4; stroke: #d62728; stroke-opacity: 0.4"/>
    </g>
   </g>
   <g id="PathCollection_4">
    <path d="M 975.72466 199.85824 
C 976.563306 199.85824 977.367716 199.525043 977.960728 198.932031 
C 978.553741 198.339019 978.886938 197.534609 978.886938 196.695963 
C 978.886938 195.857317 978.553741 195.052907 977.960728 194.459895 
C 977.367716 193.866883 976.563306 193.533685 975.72466 193.533685 
C 974.886015 193.533685 974.081605 193.866883 973.488592 194.459895 
C 972.89558 195.052907 972.562383 195.857317 972.562383 196.695963 
C 972.562383 197.534609 972.89558 198.339019 973.488592 198.932031 
C 974.081605 199.525043 974.886015 199.85824 975.72466 199.85824 
L 975.72466 199.85824 
z
" clip-path="url(#pb0a1ccac22)" style="fill: none; stroke: #000000; stroke-opacity: 0.4"/>
   </g>
   <g id="PathCollection_5">
    <defs>
     <path id="m5f5ade2fd9" d="M 0 14.142136 
C 3.750538 14.142136 7.347969 12.652031 10 10 
C 12.652031 7.347969 14.142136 3.750538 14.142136 0 
C 14.142136 -3.750538 12.652031 -7.347969 10 -10 
C 7.347969 -12.652031 3.750538 -14.142136 0 -14.142136 
C -3.750538 -14.142136 -7.347969 -12.652031 -10 -10 
C -12.652031 -7.347969 -14.142136 -3.750538 -14.142136 0 
C -14.142136 3.750538 -12.652031 7.347969 -10 10 
C -7.347969 12.652031 -3.750538 14.142136 0 14.142136 
z
" style="stroke: #d62728; stroke-opacity: 0.4"/>
    </defs>
    <g clip-path="url(#pb0a1ccac22)">
     <use xlink:href="#m5f5ade2fd9" x="1093.134977" y="263.301321" style="fill: #d62728; fill-opacity: 0.4; stroke: #d62728; stroke-opacity: 0.4"/>
    </g>
   </g>
   <g id="PathCollection_6">
    <defs>
     <path id="md020d047fa" d="M 0 3.162278 
C 0.838646 3.162278 1.643056 2.82908 2.236068 2.236068 
C 2.82908 1.643056 3.162278 0.838646 3.162278 0 
C 3.162278 -0.838646 2.82908 -1.643056 2.236068 -2.236068 
C 1.643056 -2.82908 0.838646 -3.162278 0 -3.162278 
C -0.838646 -3.162278 -1.643056 -2.82908 -2.236068 -2.236068 
C -2.82908 -1.643056 -3.162278 -0.838646 -3.162278 0 
C -3.162278 0.838646 -2.82908 1.643056 -2.236068 2.236068 
C -1.643056 2.82908 -0.838646 3.162278 0 3.162278 
z
" style="stroke: #000000; stroke-opacity: 0.4"/>
    </defs>
    <g clip-path="url(#pb0a1ccac22)">
     <use xlink:href="#md020d047fa" x="1039.848112" y="291.749777" style="fill-opacity: 0.4; stroke: #000000; stroke-opacity: 0.4"/>
    </g>
   </g>
   <g id="PathCollection_7">
    <defs>
     <path id="m8f9e7f1a7c" d="M 0 8.3666 
C 2.218848 8.3666 4.347117 7.485042 5.91608 5.91608 
C 7.485042 4.347117 8.3666 2.218848 8.3666 0 
C 8.3666 -2.218848 7.485042 -4.347117 5.91608 -5.91608 
C 4.347117 -7.485042 2.218848 -8.3666 0 -8.3666 
C -2.218848 -8.3666 -4.347117 -7.485042 -5.91608 -5.91608 
C -7.485042 -4.347117 -8.3666 -2.218848 -8.3666 0 
C -8.3666 2.218848 -7.485042 4.347117 -5.91608 5.91608 
C -4.347117 7.485042 -2.218848 8.3666 0 8.3666 
z
" style="stroke: #d62728; stroke-opacity: 0.4"/>
    </defs>
    <g clip-path="url(#pb0a1ccac22)">
     <use xlink:href="#m8f9e7f1a7c" x="1130.376474" y="347.653926" style="fill: #d62728; fill-opacity: 0.4; stroke: #d62728; stroke-opacity: 0.4"/>
    </g>
   </g>
   <g id="PathCollection_8">
    <defs>
     <path id="m7eb79e3901" d="M 0 13.416408 
C 3.558073 13.416408 6.970895 12.00277 9.486833 9.486833 
C 12.00277 6.970895 13.416408 3.558073 13.416408 0 
C 13.416408 -3.558073 12.00277 -6.970895 9.486833 -9.486833 
C 6.970895 -12.00277 3.558073 -13.416408 0 -13.416408 
C -3.558073 -13.416408 -6.970895 -12.00277 -9.486833 -9.486833 
C -12.00277 -6.970895 -13.416408 -3.558073 -13.416408 0 
C -13.416408 3.558073 -12.00277 6.970895 -9.486833 9.486833 
C -6.970895 12.00277 -3.558073 13.416408 0 13.416408 
z
" style="stroke: #000000; stroke-opacity: 0.4"/>
    </defs>
    <g clip-path="url(#pb0a1ccac22)">
     <use xlink:href="#m7eb79e3901" x="1073.44733" y="367.857293" style="fill-opacity: 0.4; stroke: #000000; stroke-opacity: 0.4"/>
    </g>
   </g>
   <g id="PathCollection_9">
    <defs>
     <path id="mf51bc2b776" d="M 0 14.491377 
C 3.843158 14.491377 7.529428 12.964474 10.246951 10.246951 
C 12.964474 7.529428 14.491377 3.843158 14.491377 0 
C 14.491377 -3.843158 12.964474 -7.529428 10.246951 -10.246951 
C 7.529428 -12.964474 3.843158 -14.491377 0 -14.491377 
C -3.843158 -14.491377 -7.529428 -12.964474 -10.246951 -10.246951 
C -12.964474 -7.529428 -14.491377 -3.843158 -14.491377 0 
C -14.491377 3.843158 -12.964474 7.529428 -10.246951 10.246951 
C -7.529428 12.964474 -3.843158 14.491377 0 14.491377 
z
" style="stroke: #d62728; stroke-opacity: 0.4"/>
    </defs>
    <g clip-path="url(#pb0a1ccac22)">
     <use xlink:href="#mf51bc2b776" x="1155.949786" y="443.461981" style="fill: #d62728; fill-opacity: 0.4; stroke: #d62728; stroke-opacity: 0.4"/>
    </g>
   </g>
   <g id="PathCollection_10">
    <defs>
     <path id="m3847178e09" d="M 0 6.324555 
C 1.677292 6.324555 3.286112 5.65816 4.472136 4.472136 
C 5.65816 3.286112 6.324555 1.677292 6.324555 0 
C 6.324555 -1.677292 5.65816 -3.286112 4.472136 -4.472136 
C 3.286112 -5.65816 1.677292 -6.324555 0 -6.324555 
C -1.677292 -6.324555 -3.286112 -5.65816 -4.472136 -4.472136 
C -5.65816 -3.286112 -6.324555 -1.677292 -6.324555 0 
C -6.324555 1.677292 -5.65816 3.286112 -4.472136 4.472136 
C -3.286112 5.65816 -1.677292 6.324555 0 6.324555 
z
" style="stroke: #000000; stroke-opacity: 0.4"/>
    </defs>
    <g clip-path="url(#pb0a1ccac22)">
     <use xlink:href="#m3847178e09" x="1096.519395" y="454.305014" style="fill-opacity: 0.4; stroke: #000000; stroke-opacity: 0.4"/>
    </g>
   </g>
   <g id="PathCollection_11">
    <path d="M 1161.951488 487.063226 
C 1162.790134 487.063226 1163.594544 486.730029 1164.187556 486.137017 
C 1164.780569 485.544005 1165.113766 484.739595 1165.113766 483.900949 
C 1165.113766 483.062303 1164.780569 482.257893 1164.187556 481.664881 
C 1163.594544 481.071869 1162.790134 480.738671 1161.951488 480.738671 
C 1161.112843 480.738671 1160.308433 481.071869 1159.71542 481.664881 
C 1159.122408 482.257893 1158.789211 483.062303 1158.789211 483.900949 
C 1158.789211 484.739595 1159.122408 485.544005 1159.71542 486.137017 
C 1160.308433 486.730029 1161.112843 487.063226 1161.951488 487.063226 
" clip-path="url(#pb0a1ccac22)" style="fill: none; stroke: #d62728; stroke-opacity: 0.4"/>
   </g>
   <g id="PathCollection_12">
    <path d="M 1101.934465 493.954547 
C 1102.773111 493.954547 1103.577521 493.62135 1104.170533 493.028338 
C 1104.763545 492.435326 1105.096743 491.630916 1105.096743 490.79227 
C 1105.096743 489.953624 1104.763545 489.149214 1104.170533 488.556202 
C 1103.577521 487.96319 1102.773111 487.629992 1101.934465 487.629992 
C 1101.095819 487.629992 1100.291409 487.96319 1099.698397 488.556202 
C 1099.105385 489.149214 1098.772187 489.953624 1098.772187 490.79227 
C 1098.772187 491.630916 1099.105385 492.435326 1099.698397 493.028338 
C 1100.291409 493.62135 1101.095819 493.954547 1101.934465 493.954547 
L 1101.934465 493.954547 
z
" clip-path="url(#pb0a1ccac22)" style="fill: none; stroke: #000000; stroke-opacity: 0.4"/>
   </g>
   <g id="PathCollection_13">
    <defs>
     <path id="mdcf9faf2fc" d="M 0 19.493589 
C 5.16976 19.493589 10.128476 17.439621 13.784049 13.784049 
C 17.439621 10.128476 19.493589 5.16976 19.493589 0 
C 19.493589 -5.16976 17.439621 -10.128476 13.784049 -13.784049 
C 10.128476 -17.439621 5.16976 -19.493589 0 -19.493589 
C -5.16976 -19.493589 -10.128476 -17.439621 -13.784049 -13.784049 
C -17.439621 -10.128476 -19.493589 -5.16976 -19.493589 0 
C -19.493589 5.16976 -17.439621 10.128476 -13.784049 13.784049 
C -10.128476 17.439621 -5.16976 19.493589 0 19.493589 
z
" style="stroke: #d62728; stroke-opacity: 0.4"/>
    </defs>
    <g clip-path="url(#pb0a1ccac22)">
     <use xlink:href="#mdcf9faf2fc" x="1160.075553" y="639.687349" style="fill: #d62728; fill-opacity: 0.4; stroke: #d62728; stroke-opacity: 0.4"/>
    </g>
   </g>
   <g id="PathCollection_14">
    <path d="M 1100.239033 634.514287 
C 1101.077678 634.514287 1101.882088 634.181089 1102.475101 633.588077 
C 1103.068113 632.995065 1103.40131 632.190655 1103.40131 631.352009 
C 1103.40131 630.513363 1103.068113 629.708953 1102.475101 629.115941 
C 1101.882088 628.522929 1101.077678 628.189732 1100.239033 628.189732 
C 1099.400387 628.189732 1098.595977 628.522929 1098.002965 629.115941 
C 1097.409952 629.708953 1097.076755 630.513363 1097.076755 631.352009 
C 1097.076755 632.190655 1097.409952 632.995065 1098.002965 633.588077 
C 1098.595977 634.181089 1099.400387 634.514287 1100.239033 634.514287 
L 1100.239033 634.514287 
z
" clip-path="url(#pb0a1ccac22)" style="fill: none; stroke: #000000; stroke-opacity: 0.4"/>
   </g>
   <g id="PathCollection_15">
    <defs>
     <path id="m515cec8e49" d="M 0 23.2379 
C 6.162763 23.2379 12.073945 20.789408 16.431677 16.431677 
C 20.789408 12.073945 23.2379 6.162763 23.2379 0 
C 23.2379 -6.162763 20.789408 -12.073945 16.431677 -16.431677 
C 12.073945 -20.789408 6.162763 -23.2379 0 -23.2379 
C -6.162763 -23.2379 -12.073945 -20.789408 -16.431677 -16.431677 
C -20.789408 -12.073945 -23.2379 -6.162763 -23.2379 0 
C -23.2379 6.162763 -20.789408 12.073945 -16.431677 16.431677 
C -12.073945 20.789408 -6.162763 23.2379 0 23.2379 
z
" style="stroke: #d62728; stroke-opacity: 0.4"/>
    </defs>
    <g clip-path="url(#pb0a1ccac22)">
     <use xlink:href="#m515cec8e49" x="1123.775247" y="778.873981" style="fill: #d62728; fill-opacity: 0.4; stroke: #d62728; stroke-opacity: 0.4"/>
    </g>
   </g>
   <g id="PathCollection_16">
    <defs>
     <path id="m4638d36c65" d="M 0 4.472136 
C 1.186024 4.472136 2.323632 4.000923 3.162278 3.162278 
C 4.000923 2.323632 4.472136 1.186024 4.472136 0 
C 4.472136 -1.186024 4.000923 -2.323632 3.162278 -3.162278 
C 2.323632 -4.000923 1.186024 -4.472136 0 -4.472136 
C -1.186024 -4.472136 -2.323632 -4.000923 -3.162278 -3.162278 
C -4.000923 -2.323632 -4.472136 -1.186024 -4.472136 0 
C -4.472136 1.186024 -4.000923 2.323632 -3.162278 3.162278 
C -2.323632 4.000923 -1.186024 4.472136 0 4.472136 
z
" style="stroke: #000000; stroke-opacity: 0.4"/>
    </defs>
    <g clip-path="url(#pb0a1ccac22)">
     <use xlink:href="#m4638d36c65" x="1067.4972" y="756.936502" style="fill-opacity: 0.4; stroke: #000000; stroke-opacity: 0.4"/>
    </g>
   </g>
   <g id="PathCollection_17">
    <path d="M 1097.41546 840.50612 
C 1098.254106 840.50612 1099.058516 840.172922 1099.651528 839.57991 
C 1100.244541 838.986898 1100.577738 838.182488 1100.577738 837.343842 
C 1100.577738 836.505196 1100.244541 835.700786 1099.651528 835.107774 
C 1099.058516 834.514762 1098.254106 834.181564 1097.41546 834.181564 
C 1096.576815 834.181564 1095.772405 834.514762 1095.179392 835.107774 
C 1094.58638 835.700786 1094.253183 836.505196 1094.253183 837.343842 
C 1094.253183 838.182488 1094.58638 838.986898 1095.179392 839.57991 
C 1095.772405 840.172922 1096.576815 840.50612 1097.41546 840.50612 
L 1097.41546 840.50612 
z
" clip-path="url(#pb0a1ccac22)" style="fill: none; stroke: #d62728; stroke-opacity: 0.4"/>
   </g>
   <g id="PathCollection_18">
    <path d="M 1043.709572 812.850585 
C 1044.548218 812.850585 1045.352628 812.517387 1045.94564 811.924375 
C 1046.538652 811.331363 1046.87185 810.526953 1046.87185 809.688307 
C 1046.87185 808.849661 1046.538652 808.045251 1045.94564 807.452239 
C 1045.352628 806.859227 1044.548218 806.526029 1043.709572 806.526029 
C 1042.870926 806.526029 1042.066516 806.859227 1041.473504 807.452239 
C 1040.880492 808.045251 1040.547294 808.849661 1040.547294 809.688307 
C 1040.547294 810.526953 1040.880492 811.331363 1041.473504 811.924375 
C 1042.066516 812.517387 1042.870926 812.850585 1043.709572 812.850585 
L 1043.709572 812.850585 
z
" clip-path="url(#pb0a1ccac22)" style="fill: none; stroke: #000000; stroke-opacity: 0.4"/>
   </g>
   <g id="PathCollection_19">
    <path d="M 1067.742167 891.904157 
C 1068.580813 891.904157 1069.385223 891.570959 1069.978235 890.977947 
C 1070.571248 890.384935 1070.904445 889.580525 1070.904445 888.741879 
C 1070.904445 887.903233 1070.571248 887.098823 1069.978235 886.505811 
C 1069.385223 885.912799 1068.580813 885.579601 1067.742167 885.579601 
C 1066.903522 885.579601 1066.099112 885.912799 1065.506099 886.505811 
C 1064.913087 887.098823 1064.57989 887.903233 1064.57989 888.741879 
C 1064.57989 889.580525 1064.913087 890.384935 1065.506099 890.977947 
C 1066.099112 891.570959 1066.903522 891.904157 1067.742167 891.904157 
L 1067.742167 891.904157 
z
" clip-path="url(#pb0a1ccac22)" style="fill: none; stroke: #d62728; stroke-opacity: 0.4"/>
   </g>
   <g id="PathCollection_20">
    <path d="M 1016.937209 859.226789 
C 1017.775855 859.226789 1018.580265 858.893592 1019.173277 858.30058 
C 1019.766289 857.707567 1020.099487 856.903157 1020.099487 856.064512 
C 1020.099487 855.225866 1019.766289 854.421456 1019.173277 853.828444 
C 1018.580265 853.235431 1017.775855 852.902234 1016.937209 852.902234 
C 1016.098563 852.902234 1015.294153 853.235431 1014.701141 853.828444 
C 1014.108129 854.421456 1013.774932 855.225866 1013.774932 856.064512 
C 1013.774932 856.903157 1014.108129 857.707567 1014.701141 858.30058 
C 1015.294153 858.893592 1016.098563 859.226789 1016.937209 859.226789 
L 1016.937209 859.226789 
z
" clip-path="url(#pb0a1ccac22)" style="fill: none; stroke: #000000; stroke-opacity: 0.4"/>
   </g>
   <g id="PathCollection_21">
    <path d="M 1041.582223 929.442194 
C 1042.420869 929.442194 1043.225279 929.108996 1043.818291 928.515984 
C 1044.411303 927.922972 1044.744501 927.118562 1044.744501 926.279916 
C 1044.744501 925.44127 1044.411303 924.63686 1043.818291 924.043848 
C 1043.225279 923.450836 1042.420869 923.117639 1041.582223 923.117639 
C 1040.743577 923.117639 1039.939167 923.450836 1039.346155 924.043848 
C 1038.753143 924.63686 1038.419946 925.44127 1038.419946 926.279916 
C 1038.419946 927.118562 1038.753143 927.922972 1039.346155 928.515984 
C 1039.939167 929.108996 1040.743577 929.442194 1041.582223 929.442194 
L 1041.582223 929.442194 
z
" clip-path="url(#pb0a1ccac22)" style="fill: none; stroke: #d62728; stroke-opacity: 0.4"/>
   </g>
   <g id="PathCollection_22">
    <path d="M 993.330084 893.090315 
C 994.16873 893.090315 994.97314 892.757117 995.566152 892.164105 
C 996.159164 891.571093 996.492361 890.766683 996.492361 889.928037 
C 996.492361 889.089391 996.159164 888.284981 995.566152 887.691969 
C 994.97314 887.098957 994.16873 886.76576 993.330084 886.76576 
C 992.491438 886.76576 991.687028 887.098957 991.094016 887.691969 
C 990.501004 888.284981 990.167806 889.089391 990.167806 889.928037 
C 990.167806 890.766683 990.501004 891.571093 991.094016 892.164105 
C 991.687028 892.757117 992.491438 893.090315 993.330084 893.090315 
L 993.330084 893.090315 
z
" clip-path="url(#pb0a1ccac22)" style="fill: none; stroke: #000000; stroke-opacity: 0.4"/>
   </g>
   <g id="PathCollection_23">
    <path d="M 1027.206502 947.795413 
C 1028.045148 947.795413 1028.849558 947.462215 1029.44257 946.869203 
C 1030.035582 946.276191 1030.36878 945.471781 1030.36878 944.633135 
C 1030.36878 943.794489 1030.035582 942.990079 1029.44257 942.397067 
C 1028.849558 941.804055 1028.045148 941.470857 1027.206502 941.470857 
C 1026.367856 941.470857 1025.563447 941.804055 1024.970434 942.397067 
C 1024.377422 942.990079 1024.044225 943.794489 1024.044225 944.633135 
C 1024.044225 945.471781 1024.377422 946.276191 1024.970434 946.869203 
C 1025.563447 947.462215 1026.367856 947.795413 1027.206502 947.795413 
L 1027.206502 947.795413 
z
" clip-path="url(#pb0a1ccac22)" style="fill: none; stroke: #d62728; stroke-opacity: 0.4"/>
   </g>
   <g id="PathCollection_24">
    <path d="M 980.359702 909.651403 
C 981.198348 909.651403 982.002758 909.318206 982.59577 908.725194 
C 983.188782 908.132181 983.52198 907.327771 983.52198 906.489126 
C 983.52198 905.65048 983.188782 904.84607 982.59577 904.253058 
C 982.002758 903.660045 981.198348 903.326848 980.359702 903.326848 
C 979.521056 903.326848 978.716647 903.660045 978.123634 904.253058 
C 977.530622 904.84607 977.197425 905.65048 977.197425 906.489126 
C 977.197425 907.327771 977.530622 908.132181 978.123634 908.725194 
C 978.716647 909.318206 979.521056 909.651403 980.359702 909.651403 
L 980.359702 909.651403 
z
" clip-path="url(#pb0a1ccac22)" style="fill: none; stroke: #000000; stroke-opacity: 0.4"/>
   </g>
   <g id="PathCollection_25">
    <path d="M 994.85146 984.463171 
C 995.690106 984.463171 996.494516 984.129973 997.087528 983.536961 
C 997.680541 982.943949 998.013738 982.139539 998.013738 981.300893 
C 998.013738 980.462247 997.680541 979.657837 997.087528 979.064825 
C 996.494516 978.471813 995.690106 978.138615 994.85146 978.138615 
C 994.012815 978.138615 993.208405 978.471813 992.615392 979.064825 
C 992.02238 979.657837 991.689183 980.462247 991.689183 981.300893 
C 991.689183 982.139539 992.02238 982.943949 992.615392 983.536961 
C 993.208405 984.129973 994.012815 984.463171 994.85146 984.463171 
L 994.85146 984.463171 
z
" clip-path="url(#pb0a1ccac22)" style="fill: none; stroke: #d62728; stroke-opacity: 0.4"/>
   </g>
   <g id="PathCollection_26">
    <path d="M 951.169898 942.734901 
C 952.008544 942.734901 952.812953 942.401703 953.405966 941.808691 
C 953.998978 941.215679 954.332175 940.411269 954.332175 939.572623 
C 954.332175 938.733977 953.998978 937.929567 953.405966 937.336555 
C 952.812953 936.743543 952.008544 936.410346 951.169898 936.410346 
C 950.331252 936.410346 949.526842 936.743543 948.93383 937.336555 
C 948.340818 937.929567 948.00762 938.733977 948.00762 939.572623 
C 948.00762 940.411269 948.340818 941.215679 948.93383 941.808691 
C 949.526842 942.401703 950.331252 942.734901 951.169898 942.734901 
L 951.169898 942.734901 
z
" clip-path="url(#pb0a1ccac22)" style="fill: none; stroke: #000000; stroke-opacity: 0.4"/>
   </g>
   <g id="PathCollection_27">
    <path d="M 948.391451 1028.318789 
C 949.230097 1028.318789 950.034507 1027.985592 950.627519 1027.39258 
C 951.220531 1026.799567 951.553729 1025.995157 951.553729 1025.156512 
C 951.553729 1024.317866 951.220531 1023.513456 950.627519 1022.920444 
C 950.034507 1022.327431 949.230097 1021.994234 948.391451 1021.994234 
C 947.552805 1021.994234 946.748395 1022.327431 946.155383 1022.920444 
C 945.562371 1023.513456 945.229174 1024.317866 945.229174 1025.156512 
C 945.229174 1025.995157 945.562371 1026.799567 946.155383 1027.39258 
C 946.748395 1027.985592 947.552805 1028.318789 948.391451 1028.318789 
L 948.391451 1028.318789 
z
" clip-path="url(#pb0a1ccac22)" style="fill: none; stroke: #d62728; stroke-opacity: 0.4"/>
   </g>
   <g id="PathCollection_28">
    <path d="M 909.248233 982.303589 
C 910.086878 982.303589 910.891288 981.970392 911.484301 981.37738 
C 912.077313 980.784367 912.41051 979.979957 912.41051 979.141312 
C 912.41051 978.302666 912.077313 977.498256 911.484301 976.905244 
C 910.891288 976.312231 910.086878 975.979034 909.248233 975.979034 
C 908.409587 975.979034 907.605177 976.312231 907.012165 976.905244 
C 906.419152 977.498256 906.085955 978.302666 906.085955 979.141312 
C 906.085955 979.979957 906.419152 980.784367 907.012165 981.37738 
C 907.605177 981.970392 908.409587 982.303589 909.248233 982.303589 
L 909.248233 982.303589 
z
" clip-path="url(#pb0a1ccac22)" style="fill: none; stroke: #000000; stroke-opacity: 0.4"/>
   </g>
   <g id="PathCollection_29">
    <path d="M 913.702772 1055.755143 
C 914.541418 1055.755143 915.345828 1055.421945 915.93884 1054.828933 
C 916.531852 1054.235921 916.86505 1053.431511 916.86505 1052.592865 
C 916.86505 1051.754219 916.531852 1050.949809 915.93884 1050.356797 
C 915.345828 1049.763785 914.541418 1049.430587 913.702772 1049.430587 
C 912.864126 1049.430587 912.059716 1049.763785 911.466704 1050.356797 
C 910.873692 1050.949809 910.540494 1051.754219 910.540494 1052.592865 
C 910.540494 1053.431511 910.873692 1054.235921 911.466704 1054.828933 
C 912.059716 1055.421945 912.864126 1055.755143 913.702772 1055.755143 
L 913.702772 1055.755143 
z
" clip-path="url(#pb0a1ccac22)" style="fill: none; stroke: #d62728; stroke-opacity: 0.4"/>
   </g>
   <g id="PathCollection_30">
    <g clip-path="url(#pb0a1ccac22)">
     <use xlink:href="#m4638d36c65" x="877.950419" y="1003.895916" style="fill-opacity: 0.4; stroke: #000000; stroke-opacity: 0.4"/>
    </g>
   </g>
   <g id="PathCollection_31">
    <defs>
     <path id="me59de826ff" d="M 0 7.745967 
C 2.054254 7.745967 4.024648 6.929803 5.477226 5.477226 
C 6.929803 4.024648 7.745967 2.054254 7.745967 0 
C 7.745967 -2.054254 6.929803 -4.024648 5.477226 -5.477226 
C 4.024648 -6.929803 2.054254 -7.745967 0 -7.745967 
C -2.054254 -7.745967 -4.024648 -6.929803 -5.477226 -5.477226 
C -6.929803 -4.024648 -7.745967 -2.054254 -7.745967 0 
C -7.745967 2.054254 -6.929803 4.024648 -5.477226 5.477226 
C -4.024648 6.929803 -2.054254 7.745967 0 7.745967 
z
" style="stroke: #d62728; stroke-opacity: 0.4"/>
    </defs>
    <g clip-path="url(#pb0a1ccac22)">
     <use xlink:href="#me59de826ff" x="819.66106" y="1109.50267" style="fill: #d62728; fill-opacity: 0.4; stroke: #d62728; stroke-opacity: 0.4"/>
    </g>
   </g>
   <g id="PathCollection_32">
    <defs>
     <path id="m9143f73f36" d="M 0 7.745967 
C 2.054254 7.745967 4.024648 6.929803 5.477226 5.477226 
C 6.929803 4.024648 7.745967 2.054254 7.745967 0 
C 7.745967 -2.054254 6.929803 -4.024648 5.477226 -5.477226 
C 4.024648 -6.929803 2.054254 -7.745967 0 -7.745967 
C -2.054254 -7.745967 -4.024648 -6.929803 -5.477226 -5.477226 
C -6.929803 -4.024648 -7.745967 -2.054254 -7.745967 0 
C -7.745967 2.054254 -6.929803 4.024648 -5.477226 5.477226 
C -4.024648 6.929803 -2.054254 7.745967 0 7.745967 
z
" style="stroke: #000000; stroke-opacity: 0.4"/>
    </defs>
    <g clip-path="url(#pb0a1ccac22)">
     <use xlink:href="#m9143f73f36" x="793.101433" y="1055.242381" style="fill-opacity: 0.4; stroke: #000000; stroke-opacity: 0.4"/>
    </g>
   </g>
   <g id="PathCollection_33">
    <defs>
     <path id="m742d36844e" d="M 0 16.733201 
C 4.437697 16.733201 8.694234 14.970085 11.83216 11.83216 
C 14.970085 8.694234 16.733201 4.437697 16.733201 0 
C 16.733201 -4.437697 14.970085 -8.694234 11.83216 -11.83216 
C 8.694234 -14.970085 4.437697 -16.733201 0 -16.733201 
C -4.437697 -16.733201 -8.694234 -14.970085 -11.83216 -11.83216 
C -14.970085 -8.694234 -16.733201 -4.437697 -16.733201 0 
C -16.733201 4.437697 -14.970085 8.694234 -11.83216 11.83216 
C -8.694234 14.970085 -4.437697 16.733201 0 16.733201 
z
" style="stroke: #d62728; stroke-opacity: 0.4"/>
    </defs>
    <g clip-path="url(#pb0a1ccac22)">
     <use xlink:href="#m742d36844e" x="762.899526" y="1133.851144" style="fill: #d62728; fill-opacity: 0.4; stroke: #d62728; stroke-opacity: 0.4"/>
    </g>
   </g>
   <g id="PathCollection_34">
    <path d="M 741.890344 1080.374371 
C 742.72899 1080.374371 743.5334 1080.041173 744.126412 1079.448161 
C 744.719424 1078.855149 745.052622 1078.050739 745.052622 1077.212093 
C 745.052622 1076.373447 744.719424 1075.569037 744.126412 1074.976025 
C 743.5334 1074.383013 742.72899 1074.049815 741.890344 1074.049815 
C 741.051698 1074.049815 740.247288 1074.383013 739.654276 1074.976025 
C 739.061264 1075.569037 738.728067 1076.373447 738.728067 1077.212093 
C 738.728067 1078.050739 739.061264 1078.855149 739.654276 1079.448161 
C 740.247288 1080.041173 741.051698 1080.374371 741.890344 1080.374371 
L 741.890344 1080.374371 
z
" clip-path="url(#pb0a1ccac22)" style="fill: none; stroke: #000000; stroke-opacity: 0.4"/>
   </g>
   <g id="PathCollection_35">
    <defs>
     <path id="m45dbc8ecc9" d="M 0 10.954451 
C 2.905154 10.954451 5.691712 9.800221 7.745967 7.745967 
C 9.800221 5.691712 10.954451 2.905154 10.954451 0 
C 10.954451 -2.905154 9.800221 -5.691712 7.745967 -7.745967 
C 5.691712 -9.800221 2.905154 -10.954451 0 -10.954451 
C -2.905154 -10.954451 -5.691712 -9.800221 -7.745967 -7.745967 
C -9.800221 -5.691712 -10.954451 -2.905154 -10.954451 0 
C -10.954451 2.905154 -9.800221 5.691712 -7.745967 7.745967 
C -5.691712 9.800221 -2.905154 10.954451 0 10.954451 
z
" style="stroke: #d62728; stroke-opacity: 0.4"/>
    </defs>
    <g clip-path="url(#pb0a1ccac22)">
     <use xlink:href="#m45dbc8ecc9" x="704.726205" y="1152.217256" style="fill: #d62728; fill-opacity: 0.4; stroke: #d62728; stroke-opacity: 0.4"/>
    </g>
   </g>
   <g id="PathCollection_36">
    <path d="M 689.402847 1096.948352 
C 690.241492 1096.948352 691.045902 1096.615155 691.638914 1096.022142 
C 692.231927 1095.42913 692.565124 1094.62472 692.565124 1093.786074 
C 692.565124 1092.947429 692.231927 1092.143019 691.638914 1091.550006 
C 691.045902 1090.956994 690.241492 1090.623797 689.402847 1090.623797 
C 688.564201 1090.623797 687.759791 1090.956994 687.166779 1091.550006 
C 686.573766 1092.143019 686.240569 1092.947429 686.240569 1093.786074 
C 686.240569 1094.62472 686.573766 1095.42913 687.166779 1096.022142 
C 687.759791 1096.615155 688.564201 1096.948352 689.402847 1096.948352 
L 689.402847 1096.948352 
z
" clip-path="url(#pb0a1ccac22)" style="fill: none; stroke: #000000; stroke-opacity: 0.4"/>
   </g>
   <g id="PathCollection_37">
    <g clip-path="url(#pb0a1ccac22)">
     <use xlink:href="#me59de826ff" x="668.844921" y="1160.494577" style="fill: #d62728; fill-opacity: 0.4; stroke: #d62728; stroke-opacity: 0.4"/>
    </g>
   </g>
   <g id="PathCollection_38">
    <path d="M 657.028465 1104.413413 
C 657.867111 1104.413413 658.671521 1104.080215 659.264533 1103.487203 
C 659.857545 1102.894191 660.190743 1102.089781 660.190743 1101.251135 
C 660.190743 1100.412489 659.857545 1099.608079 659.264533 1099.015067 
C 658.671521 1098.422055 657.867111 1098.088857 657.028465 1098.088857 
C 656.189819 1098.088857 655.385409 1098.422055 654.792397 1099.015067 
C 654.199385 1099.608079 653.866187 1100.412489 653.866187 1101.251135 
C 653.866187 1102.089781 654.199385 1102.894191 654.792397 1103.487203 
C 655.385409 1104.080215 656.189819 1104.413413 657.028465 1104.413413 
L 657.028465 1104.413413 
z
" clip-path="url(#pb0a1ccac22)" style="fill: none; stroke: #000000; stroke-opacity: 0.4"/>
   </g>
   <g id="PathCollection_39">
    <defs>
     <path id="m26a14982e1" d="M 0 3.162278 
C 0.838646 3.162278 1.643056 2.82908 2.236068 2.236068 
C 2.82908 1.643056 3.162278 0.838646 3.162278 0 
C 3.162278 -0.838646 2.82908 -1.643056 2.236068 -2.236068 
C 1.643056 -2.82908 0.838646 -3.162278 0 -3.162278 
C -0.838646 -3.162278 -1.643056 -2.82908 -2.236068 -2.236068 
C -2.82908 -1.643056 -3.162278 -0.838646 -3.162278 0 
C -3.162278 0.838646 -2.82908 1.643056 -2.236068 2.236068 
C -1.643056 2.82908 -0.838646 3.162278 0 3.162278 
z
" style="stroke: #d62728; stroke-opacity: 0.4"/>
    </defs>
    <g clip-path="url(#pb0a1ccac22)">
     <use xlink:href="#m26a14982e1" x="658.614307" y="1162.44787" style="fill: #d62728; fill-opacity: 0.4; stroke: #d62728; stroke-opacity: 0.4"/>
    </g>
   </g>
   <g id="PathCollection_40">
    <path d="M 647.79706 1106.17331 
C 648.635706 1106.17331 649.440116 1105.840113 650.033128 1105.247101 
C 650.626141 1104.654088 650.959338 1103.849678 650.959338 1103.011033 
C 650.959338 1102.172387 650.626141 1101.367977 650.033128 1100.774965 
C 649.440116 1100.181952 648.635706 1099.848755 647.79706 1099.848755 
C 646.958415 1099.848755 646.154005 1100.181952 645.560992 1100.774965 
C 644.96798 1101.367977 644.634783 1102.172387 644.634783 1103.011033 
C 644.634783 1103.849678 644.96798 1104.654088 645.560992 1105.247101 
C 646.154005 1105.840113 646.958415 1106.17331 647.79706 1106.17331 
L 647.79706 1106.17331 
z
" clip-path="url(#pb0a1ccac22)" style="fill: none; stroke: #000000; stroke-opacity: 0.4"/>
   </g>
   <g id="PathCollection_41">
    <path d="M 642.407777 1168.337022 
C 643.246423 1168.337022 644.050833 1168.003824 644.643845 1167.410812 
C 645.236857 1166.8178 645.570054 1166.01339 645.570054 1165.174744 
C 645.570054 1164.336098 645.236857 1163.531688 644.643845 1162.938676 
C 644.050833 1162.345664 643.246423 1162.012467 642.407777 1162.012467 
C 641.569131 1162.012467 640.764721 1162.345664 640.171709 1162.938676 
C 639.578697 1163.531688 639.245499 1164.336098 639.245499 1165.174744 
C 639.245499 1166.01339 639.578697 1166.8178 640.171709 1167.410812 
C 640.764721 1168.003824 641.569131 1168.337022 642.407777 1168.337022 
" clip-path="url(#pb0a1ccac22)" style="fill: none; stroke: #d62728; stroke-opacity: 0.4"/>
   </g>
   <g id="PathCollection_42">
    <path d="M 633.176372 1108.635878 
C 634.015018 1108.635878 634.819428 1108.30268 635.41244 1107.709668 
C 636.005452 1107.116656 636.33865 1106.312246 636.33865 1105.4736 
C 636.33865 1104.634954 636.005452 1103.830544 635.41244 1103.237532 
C 634.819428 1102.64452 634.015018 1102.311322 633.176372 1102.311322 
C 632.337726 1102.311322 631.533316 1102.64452 630.940304 1103.237532 
C 630.347292 1103.830544 630.014094 1104.634954 630.014094 1105.4736 
C 630.014094 1106.312246 630.347292 1107.116656 630.940304 1107.709668 
C 631.533316 1108.30268 632.337726 1108.635878 633.176372 1108.635878 
L 633.176372 1108.635878 
z
" clip-path="url(#pb0a1ccac22)" style="fill: none; stroke: #000000; stroke-opacity: 0.4"/>
   </g>
   <g id="PathCollection_43">
    <path d="M 621.301898 1171.225059 
C 622.140544 1171.225059 622.944953 1170.891862 623.537966 1170.298849 
C 624.130978 1169.705837 624.464175 1168.901427 624.464175 1168.062781 
C 624.464175 1167.224136 624.130978 1166.419726 623.537966 1165.826713 
C 622.944953 1165.233701 622.140544 1164.900504 621.301898 1164.900504 
C 620.463252 1164.900504 619.658842 1165.233701 619.06583 1165.826713 
C 618.472818 1166.419726 618.13962 1167.224136 618.13962 1168.062781 
C 618.13962 1168.901427 618.472818 1169.705837 619.06583 1170.298849 
C 619.658842 1170.891862 620.463252 1171.225059 621.301898 1171.225059 
" clip-path="url(#pb0a1ccac22)" style="fill: none; stroke: #d62728; stroke-opacity: 0.4"/>
   </g>
   <g id="PathCollection_44">
    <path d="M 614.133377 1111.246715 
C 614.972023 1111.246715 615.776433 1110.913517 616.369445 1110.320505 
C 616.962457 1109.727493 617.295654 1108.923083 617.295654 1108.084437 
C 617.295654 1107.245791 616.962457 1106.441381 616.369445 1105.848369 
C 615.776433 1105.255357 614.972023 1104.92216 614.133377 1104.92216 
C 613.294731 1104.92216 612.490321 1105.255357 611.897309 1105.848369 
C 611.304297 1106.441381 610.971099 1107.245791 610.971099 1108.084437 
C 610.971099 1108.923083 611.304297 1109.727493 611.897309 1110.320505 
C 612.490321 1110.913517 613.294731 1111.246715 614.133377 1111.246715 
" clip-path="url(#pb0a1ccac22)" style="fill: none; stroke: #000000; stroke-opacity: 0.4"/>
   </g>
  </g>
 </g>
 <defs>
  <clipPath id="pb0a1ccac22">
   <rect x="0" y="0" width="1108.8" height="1108.8"/>
  </clipPath>
 </defs>
</svg>
